<mxfile host="app.diagrams.net" modified="2024-03-07T12:03:10.107Z" agent="Mozilla/5.0 (X11; Linux x86_64; rv:102.0) Gecko/20100101 Firefox/102.0" etag="Erzt5nqzLTk7eHNy2J89" version="24.0.1" type="github">
  <diagram id="prtHgNgQTEPvFCAcTncT" name="Page-1">
    <mxGraphModel dx="1377" dy="684" grid="1" gridSize="15" guides="1" tooltips="1" connect="1" arrows="1" fold="1" page="1" pageScale="1" pageWidth="827" pageHeight="1169" math="0" shadow="1">
      <root>
        <mxCell id="0" />
        <mxCell id="1" parent="0" />
        <mxCell id="mm9sd67sM0A_G5Sb0UkS-7" style="edgeStyle=orthogonalEdgeStyle;rounded=0;orthogonalLoop=1;jettySize=auto;html=1;entryX=0;entryY=0.5;entryDx=0;entryDy=0;" edge="1" parent="1" target="mm9sd67sM0A_G5Sb0UkS-6">
          <mxGeometry relative="1" as="geometry">
            <mxPoint x="110" y="350" as="targetPoint" />
            <mxPoint x="100" y="350" as="sourcePoint" />
          </mxGeometry>
        </mxCell>
        <mxCell id="mm9sd67sM0A_G5Sb0UkS-6" value="" style="ellipse;whiteSpace=wrap;html=1;aspect=fixed;hachureGap=4;fillColor=#dae8fc;strokeColor=#6c8ebf;rounded=0;" vertex="1" parent="1">
          <mxGeometry x="150" y="310" width="80" height="80" as="geometry" />
        </mxCell>
        <mxCell id="mm9sd67sM0A_G5Sb0UkS-9" style="edgeStyle=orthogonalEdgeStyle;rounded=0;orthogonalLoop=1;jettySize=auto;html=1;exitX=1;exitY=0.5;exitDx=0;exitDy=0;entryX=0;entryY=0.5;entryDx=0;entryDy=0;" edge="1" parent="1" source="mm9sd67sM0A_G5Sb0UkS-6" target="mm9sd67sM0A_G5Sb0UkS-8">
          <mxGeometry relative="1" as="geometry" />
        </mxCell>
        <mxCell id="mm9sd67sM0A_G5Sb0UkS-20" style="edgeStyle=orthogonalEdgeStyle;rounded=0;orthogonalLoop=1;jettySize=auto;html=1;exitX=1;exitY=0.5;exitDx=0;exitDy=0;entryX=0;entryY=0.5;entryDx=0;entryDy=0;" edge="1" parent="1" target="mm9sd67sM0A_G5Sb0UkS-22">
          <mxGeometry relative="1" as="geometry">
            <mxPoint x="380" y="350" as="sourcePoint" />
          </mxGeometry>
        </mxCell>
        <mxCell id="mm9sd67sM0A_G5Sb0UkS-21" value="" style="group" vertex="1" connectable="0" parent="1">
          <mxGeometry x="450" y="310" width="80" height="80" as="geometry" />
        </mxCell>
        <mxCell id="mm9sd67sM0A_G5Sb0UkS-22" value="" style="ellipse;whiteSpace=wrap;html=1;aspect=fixed;hachureGap=4;fillColor=#dae8fc;strokeColor=#6c8ebf;rounded=0;" vertex="1" parent="mm9sd67sM0A_G5Sb0UkS-21">
          <mxGeometry width="80" height="80" as="geometry" />
        </mxCell>
        <mxCell id="mm9sd67sM0A_G5Sb0UkS-23" value="u" style="text;html=1;align=center;verticalAlign=middle;resizable=0;points=[];autosize=1;strokeColor=none;fillColor=none;fontSize=18;" vertex="1" parent="1">
          <mxGeometry x="391.5" y="303" width="45" height="45" as="geometry" />
        </mxCell>
        <mxCell id="mm9sd67sM0A_G5Sb0UkS-24" value="" style="group" vertex="1" connectable="0" parent="1">
          <mxGeometry x="601.5" y="310" width="80" height="80" as="geometry" />
        </mxCell>
        <mxCell id="mm9sd67sM0A_G5Sb0UkS-31" style="edgeStyle=orthogonalEdgeStyle;rounded=0;orthogonalLoop=1;jettySize=auto;html=1;exitX=1;exitY=0.5;exitDx=0;exitDy=0;" edge="1" parent="mm9sd67sM0A_G5Sb0UkS-24" source="mm9sd67sM0A_G5Sb0UkS-25">
          <mxGeometry relative="1" as="geometry">
            <mxPoint x="138.5" y="40" as="targetPoint" />
          </mxGeometry>
        </mxCell>
        <mxCell id="mm9sd67sM0A_G5Sb0UkS-25" value="" style="ellipse;whiteSpace=wrap;html=1;aspect=fixed;hachureGap=4;fillColor=#dae8fc;strokeColor=#6c8ebf;rounded=0;" vertex="1" parent="mm9sd67sM0A_G5Sb0UkS-24">
          <mxGeometry width="80" height="80" as="geometry" />
        </mxCell>
        <mxCell id="mm9sd67sM0A_G5Sb0UkS-27" style="edgeStyle=orthogonalEdgeStyle;rounded=0;orthogonalLoop=1;jettySize=auto;html=1;exitX=1;exitY=0.5;exitDx=0;exitDy=0;entryX=0;entryY=0.5;entryDx=0;entryDy=0;" edge="1" parent="1" source="mm9sd67sM0A_G5Sb0UkS-22" target="mm9sd67sM0A_G5Sb0UkS-25">
          <mxGeometry relative="1" as="geometry" />
        </mxCell>
        <mxCell id="mm9sd67sM0A_G5Sb0UkS-28" value="d" style="text;html=1;align=center;verticalAlign=middle;resizable=0;points=[];autosize=1;strokeColor=none;fillColor=none;fontSize=18;" vertex="1" parent="1">
          <mxGeometry x="539" y="301" width="45" height="45" as="geometry" />
        </mxCell>
        <mxCell id="mm9sd67sM0A_G5Sb0UkS-32" value="e" style="text;html=1;align=center;verticalAlign=middle;resizable=0;points=[];autosize=1;strokeColor=none;fillColor=none;fontSize=18;" vertex="1" parent="1">
          <mxGeometry x="689" y="301" width="45" height="45" as="geometry" />
        </mxCell>
        <mxCell id="mm9sd67sM0A_G5Sb0UkS-35" value="" style="ellipse;whiteSpace=wrap;html=1;aspect=fixed;hachureGap=4;fillColor=#dae8fc;strokeColor=#6c8ebf;rounded=0;" vertex="1" parent="1">
          <mxGeometry x="740" y="310" width="80" height="80" as="geometry" />
        </mxCell>
        <mxCell id="mm9sd67sM0A_G5Sb0UkS-36" value="" style="ellipse;whiteSpace=wrap;html=1;aspect=fixed;hachureGap=4;rounded=0;" vertex="1" parent="1">
          <mxGeometry x="755" y="325" width="50" height="50" as="geometry" />
        </mxCell>
        <mxCell id="mm9sd67sM0A_G5Sb0UkS-37" style="edgeStyle=orthogonalEdgeStyle;rounded=0;orthogonalLoop=1;jettySize=auto;html=1;exitX=0.5;exitY=0;exitDx=0;exitDy=0;entryX=0.5;entryY=0;entryDx=0;entryDy=0;" edge="1" parent="1" source="mm9sd67sM0A_G5Sb0UkS-8" target="mm9sd67sM0A_G5Sb0UkS-6">
          <mxGeometry relative="1" as="geometry">
            <Array as="points">
              <mxPoint x="340" y="260" />
              <mxPoint x="190" y="260" />
            </Array>
          </mxGeometry>
        </mxCell>
        <mxCell id="mm9sd67sM0A_G5Sb0UkS-38" style="edgeStyle=orthogonalEdgeStyle;rounded=0;orthogonalLoop=1;jettySize=auto;html=1;exitX=0.5;exitY=1;exitDx=0;exitDy=0;entryX=0;entryY=1;entryDx=0;entryDy=0;curved=1;" edge="1" parent="1" source="mm9sd67sM0A_G5Sb0UkS-6" target="mm9sd67sM0A_G5Sb0UkS-6">
          <mxGeometry relative="1" as="geometry">
            <Array as="points">
              <mxPoint x="190" y="420" />
              <mxPoint x="162" y="420" />
            </Array>
          </mxGeometry>
        </mxCell>
        <mxCell id="mm9sd67sM0A_G5Sb0UkS-39" style="edgeStyle=orthogonalEdgeStyle;rounded=0;orthogonalLoop=1;jettySize=auto;html=1;exitX=0.5;exitY=0;exitDx=0;exitDy=0;entryX=1;entryY=0;entryDx=0;entryDy=0;curved=1;" edge="1" parent="1" source="mm9sd67sM0A_G5Sb0UkS-35" target="mm9sd67sM0A_G5Sb0UkS-35">
          <mxGeometry relative="1" as="geometry">
            <Array as="points">
              <mxPoint x="780" y="280" />
              <mxPoint x="808" y="280" />
            </Array>
          </mxGeometry>
        </mxCell>
        <mxCell id="mm9sd67sM0A_G5Sb0UkS-40" value="∑" style="text;html=1;align=center;verticalAlign=middle;resizable=0;points=[];autosize=1;strokeColor=none;fillColor=none;fontSize=18;" vertex="1" parent="1">
          <mxGeometry x="775" y="225" width="45" height="45" as="geometry" />
        </mxCell>
        <mxCell id="mm9sd67sM0A_G5Sb0UkS-42" value="∑- u" style="text;html=1;align=center;verticalAlign=middle;resizable=0;points=[];autosize=1;strokeColor=none;fillColor=none;strokeWidth=1;fontSize=18;" vertex="1" parent="1">
          <mxGeometry x="218" y="211" width="75" height="45" as="geometry" />
        </mxCell>
        <mxCell id="mm9sd67sM0A_G5Sb0UkS-11" value="" style="group" vertex="1" connectable="0" parent="1">
          <mxGeometry x="300" y="310" width="80" height="80" as="geometry" />
        </mxCell>
        <mxCell id="mm9sd67sM0A_G5Sb0UkS-8" value="" style="ellipse;whiteSpace=wrap;html=1;aspect=fixed;hachureGap=4;fillColor=#dae8fc;strokeColor=#6c8ebf;rounded=0;" vertex="1" parent="mm9sd67sM0A_G5Sb0UkS-11">
          <mxGeometry width="80" height="80" as="geometry" />
        </mxCell>
        <mxCell id="mm9sd67sM0A_G5Sb0UkS-14" value="d" style="text;html=1;align=center;verticalAlign=middle;resizable=0;points=[];autosize=1;strokeColor=none;fillColor=none;fontSize=18;" vertex="1" parent="1">
          <mxGeometry x="243" y="303" width="45" height="45" as="geometry" />
        </mxCell>
        <mxCell id="mm9sd67sM0A_G5Sb0UkS-44" value="∑- d" style="text;html=1;align=center;verticalAlign=middle;resizable=0;points=[];autosize=1;strokeColor=none;fillColor=none;fontSize=18;" vertex="1" parent="1">
          <mxGeometry x="135" y="420" width="75" height="45" as="geometry" />
        </mxCell>
      </root>
    </mxGraphModel>
  </diagram>
</mxfile>
